<svg width="441" height="152" viewBox="0 0 441 152" fill="none" xmlns="http://www.w3.org/2000/svg">
<g opacity="0.84" clip-path="url(#clip0_464_15229)">
<path d="M78.9743 15.9081L66.594 12.5908L56.161 51.5276L46.7418 16.3752L34.3613 19.6925L44.5381 57.6721L19.19 32.3243L10.127 41.3873L37.9305 69.1911L3.3056 59.9133L-0.0117188 72.2936L37.8204 82.4307C37.3872 80.5625 37.1581 78.6159 37.1581 76.6158C37.1581 62.4583 48.6349 50.9815 62.7924 50.9815C76.9499 50.9815 88.4268 62.4583 88.4268 76.6158C88.4268 78.603 88.2004 80.5377 87.7726 82.3949L122.155 91.6075L125.472 79.2272L87.4897 69.0498L122.117 59.7714L118.799 47.3911L80.8185 57.5679L106.166 32.2202L97.1033 23.1571L69.6854 50.5751L78.9743 15.9081Z" fill="black"/>
<path d="M87.7365 82.539C86.675 87.0265 84.4341 91.0579 81.3593 94.2878L106.268 119.197L115.331 110.133L87.7365 82.539Z" fill="black"/>
<path d="M81.1079 94.5482C77.996 97.7266 74.0634 100.098 69.6534 101.321L78.7171 135.147L91.0974 131.829L81.1079 94.5482Z" fill="black"/>
<path d="M69.191 101.444C67.1449 101.97 65.0003 102.25 62.7903 102.25C60.4225 102.25 58.1296 101.929 55.9529 101.328L46.881 135.185L59.2613 138.502L69.191 101.444Z" fill="black"/>
<path d="M55.5152 101.203C51.1725 99.9202 47.3099 97.5181 44.2615 94.3306L19.2918 119.3L28.3548 128.364L55.5152 101.203Z" fill="black"/>
<path d="M44.0558 94.1099C41.0597 90.9023 38.8773 86.9248 37.8386 82.5065L3.34395 91.7494L6.66125 104.13L44.0558 94.1099Z" fill="black"/>
</g>
<path d="M221.978 35.694V117.956H202.94V84.2286H165.57V117.956H146.532V35.694H165.57V68.1287H202.94V35.694H221.978ZM267.295 104.207C270.585 104.207 273.484 103.736 275.991 102.796C278.576 101.778 280.966 100.211 283.159 98.0956L292.913 108.672C286.959 115.488 278.263 118.896 266.824 118.896C259.695 118.896 253.388 117.525 247.904 114.783C242.42 111.963 238.189 108.085 235.212 103.149C232.235 98.2132 230.747 92.6115 230.747 86.3439C230.747 80.1547 232.196 74.5922 235.095 69.6565C238.072 64.6424 242.107 60.7643 247.199 58.0223C252.37 55.2018 258.167 53.7916 264.592 53.7916C270.624 53.7916 276.108 55.0843 281.044 57.6697C285.98 60.1767 289.897 63.8589 292.796 68.7163C295.773 73.4954 297.261 79.1754 297.261 85.7563L250.49 94.8052C251.821 97.939 253.898 100.289 256.718 101.856C259.617 103.423 263.142 104.207 267.295 104.207ZM264.592 67.6587C259.969 67.6587 256.209 69.1472 253.31 72.1243C250.411 75.1014 248.883 79.2145 248.727 84.4636L279.516 78.4703C278.655 75.1798 276.892 72.5552 274.228 70.5966C271.564 68.638 268.352 67.6587 264.592 67.6587ZM327.564 118.896C320.435 118.896 314.872 117.016 310.877 113.255C306.881 109.416 304.884 104.011 304.884 97.038V30.7583H323.216V95.9803C323.216 98.6441 323.882 100.72 325.214 102.209C326.624 103.619 328.583 104.324 331.09 104.324C332.03 104.324 332.97 104.207 333.91 103.972C334.929 103.736 335.712 103.462 336.261 103.149L337.083 117.368C334.028 118.387 330.855 118.896 327.564 118.896ZM341.383 54.7318H359.715V117.956H341.383V54.7318ZM350.549 45.918C347.18 45.918 344.438 44.9387 342.323 42.9801C340.208 41.0214 339.15 38.5927 339.15 35.694C339.15 32.7952 340.208 30.3665 342.323 28.4079C344.438 26.4493 347.18 25.47 350.549 25.47C353.918 25.47 356.66 26.4101 358.775 28.2904C360.891 30.1707 361.948 32.521 361.948 35.3414C361.948 38.3969 360.891 40.9431 358.775 42.9801C356.66 44.9387 353.918 45.918 350.549 45.918ZM402.113 118.896C395.454 118.896 389.461 117.525 384.133 114.783C378.884 111.963 374.771 108.085 371.794 103.149C368.817 98.2132 367.328 92.6115 367.328 86.3439C367.328 80.0763 368.817 74.4747 371.794 69.5389C374.771 64.6032 378.884 60.7643 384.133 58.0223C389.461 55.2018 395.454 53.7916 402.113 53.7916C408.773 53.7916 414.727 55.2018 419.976 58.0223C425.225 60.7643 429.338 64.6032 432.315 69.5389C435.292 74.4747 436.781 80.0763 436.781 86.3439C436.781 92.6115 435.292 98.2132 432.315 103.149C429.338 108.085 425.225 111.963 419.976 114.783C414.727 117.525 408.773 118.896 402.113 118.896ZM402.113 103.854C406.814 103.854 410.653 102.287 413.63 99.1533C416.686 95.9412 418.213 91.6714 418.213 86.3439C418.213 81.0165 416.686 76.7858 413.63 73.6521C410.653 70.4399 406.814 68.8338 402.113 68.8338C397.413 68.8338 393.535 70.4399 390.479 73.6521C387.424 76.7858 385.896 81.0165 385.896 86.3439C385.896 91.6714 387.424 95.9412 390.479 99.1533C393.535 102.287 397.413 103.854 402.113 103.854Z" fill="black"/>
<defs>
<clipPath id="clip0_464_15229">
<rect width="125.911" height="151.094" fill="white"/>
</clipPath>
</defs>
</svg>
